<svg xmlns="http://www.w3.org/2000/svg" width="247" height="90" viewBox="0 0 247 90">
  <g fill="none">
    <path fill="#292A2E" d="M137.088489,41.1377827 C136.942896,44.2733751 136.09015,47.042763 134.530226,49.4460296 C132.970302,51.8492961 130.781241,53.7110262 127.962978,55.0312756 C125.144714,56.3515251 121.926119,57.0116399 118.307094,57.0116399 C112.337784,57.0116399 107.637282,55.0828669 104.205449,51.2252631 C100.773615,47.3676593 99.0577245,41.9217121 99.0577245,34.8872581 L99.0577245,32.6593483 C99.0577245,28.2447643 99.8324753,24.3820612 101.382,21.0711231 C102.931525,17.7601851 105.162183,15.2022402 108.074042,13.3972117 C110.9859,11.5921832 114.355287,10.6896825 118.182301,10.6896825 C123.694034,10.6896825 128.124152,12.1285265 131.47279,15.0062577 C134.821427,17.8839888 136.724506,21.8498349 137.182084,26.9039147 L126.262668,26.9039147 C126.179472,24.1602714 125.482717,22.1902412 124.17238,20.9937652 C122.862044,19.7972892 120.865371,19.1990601 118.182301,19.1990601 C115.457633,19.1990601 113.46096,20.2098609 112.192222,22.2314928 C110.923483,24.2531248 110.257925,27.4814988 110.195528,31.9167117 L110.195528,35.1038604 C110.195528,39.9103935 110.80389,43.3450534 112.02063,45.4079431 C113.237371,47.4708329 115.332838,48.5022623 118.307094,48.5022623 C120.823772,48.5022623 122.74765,47.9143475 124.078785,46.7385003 C125.409921,45.5626532 126.117076,43.695766 126.200272,41.1377827 L137.088489,41.1377827 Z M165.697358,44.417761 C165.697358,42.8293359 165.130594,41.5916207 163.997049,40.7045781 C162.863504,39.8175355 160.872031,38.8995633 158.022569,37.950634 C155.173107,37.0017047 152.843655,36.0837326 151.034143,35.19669 C145.148028,32.3292733 142.205015,28.389213 142.205015,23.3763909 C142.205015,20.8802943 142.938169,18.6781926 144.404498,16.7700196 C145.870826,14.8618466 147.945495,13.3765882 150.628565,12.3142 C153.311634,11.2518118 156.327442,10.7206257 159.67608,10.7206257 C162.941522,10.7206257 165.868936,11.2982261 168.45841,12.4534444 C171.047884,13.6086626 173.060157,15.2537925 174.495287,17.3888834 C175.930418,19.5239743 176.647972,21.9633048 176.647972,24.7069481 L165.728556,24.7069481 C165.728556,22.8709763 165.161792,21.4476037 164.028247,20.4367877 C162.894702,19.4259718 161.3608,18.9205713 159.426494,18.9205713 C157.471389,18.9205713 155.927087,19.3486146 154.793542,20.2047138 C153.659997,21.060813 153.093233,22.1489711 153.093233,23.4692205 C153.093233,24.6244387 153.717193,25.6713396 154.965132,26.6099544 C156.213072,27.5485692 158.407333,28.5181128 161.54798,29.5186144 C164.688628,30.5191159 167.267664,31.5969597 169.285166,32.7521779 C174.193728,35.5577079 176.647972,39.4255682 176.647972,44.3558746 C176.647972,48.295994 175.150467,51.3902822 172.155413,53.638832 C169.160357,55.8873819 165.052619,57.0116399 159.832072,57.0116399 C156.15065,57.0116399 152.817662,56.3566822 149.833007,55.0467472 C146.848352,53.7368123 144.602094,51.9421251 143.094168,49.6626319 C141.586241,47.3831388 140.832288,44.758151 140.832288,41.7875897 L151.814101,41.7875897 C151.814101,44.2011707 152.443261,45.9803865 153.7016,47.1252903 C154.959939,48.2701941 157.003409,48.8426373 159.832072,48.8426373 C161.641584,48.8426373 163.071493,48.4558513 164.121842,47.6822677 C165.172191,46.9086841 165.697358,45.8205261 165.697358,44.417761 Z M205.693617,44.417761 C205.693617,42.8293359 205.126853,41.5916207 203.993308,40.7045781 C202.859763,39.8175355 200.86829,38.8995633 198.018828,37.950634 C195.169366,37.0017047 192.839915,36.0837326 191.030402,35.19669 C185.144288,32.3292733 182.201275,28.389213 182.201275,23.3763909 C182.201275,20.8802943 182.934428,18.6781926 184.400757,16.7700196 C185.867086,14.8618466 187.941754,13.3765882 190.624824,12.3142 C193.307894,11.2518118 196.323703,10.7206257 199.67234,10.7206257 C202.937782,10.7206257 205.865196,11.2982261 208.45467,12.4534444 C211.044144,13.6086626 213.056416,15.2537925 214.491547,17.3888834 C215.926677,19.5239743 216.644232,21.9633048 216.644232,24.7069481 L205.724816,24.7069481 C205.724816,22.8709763 205.158052,21.4476037 204.024507,20.4367877 C202.890962,19.4259718 201.357059,18.9205713 199.422753,18.9205713 C197.467648,18.9205713 195.923346,19.3486146 194.789801,20.2047138 C193.656256,21.060813 193.089492,22.1489711 193.089492,23.4692205 C193.089492,24.6244387 193.713452,25.6713396 194.961392,26.6099544 C196.209332,27.5485692 198.403592,28.5181128 201.544239,29.5186144 C204.684887,30.5191159 207.263923,31.5969597 209.281425,32.7521779 C214.189987,35.5577079 216.644232,39.4255682 216.644232,44.3558746 C216.644232,48.295994 215.146727,51.3902822 212.151672,53.638832 C209.156617,55.8873819 205.048878,57.0116399 199.828332,57.0116399 C196.14691,57.0116399 192.813922,56.3566822 189.829267,55.0467472 C186.844612,53.7368123 184.598354,51.9421251 183.090427,49.6626319 C181.5825,47.3831388 180.828548,44.758151 180.828548,41.7875897 L191.81036,41.7875897 C191.81036,44.2011707 192.439521,45.9803865 193.697859,47.1252903 C194.956199,48.2701941 196.999668,48.8426373 199.828332,48.8426373 C201.637844,48.8426373 203.067753,48.4558513 204.118102,47.6822677 C205.168451,46.9086841 205.693617,45.8205261 205.693617,44.417761 Z M111.067087,69.7465572 L105.414012,69.7465572 L105.414012,75.3472942 L101.908306,75.3472942 L101.908306,61.2875129 L111.636389,61.2875129 L111.636389,63.9044088 L105.414012,63.9044088 L105.414012,67.1393176 L111.067087,67.1393176 L111.067087,69.7465572 Z M118.497983,70.3838823 L116.600308,70.3838823 L116.600308,75.3472942 L113.094603,75.3472942 L113.094603,61.2875129 L118.817592,61.2875129 C120.542154,61.2875129 121.890489,61.6576728 122.862636,62.3980036 C123.834784,63.1383349 124.32085,64.1844388 124.32085,65.5363479 C124.32085,66.5148723 124.116103,67.3260053 123.706603,67.9697716 C123.297102,68.6135373 122.656227,69.1349801 121.783958,69.5341153 L124.820238,75.2024472 L124.820238,75.3472942 L121.064839,75.3472942 L118.497983,70.3838823 Z M116.600308,67.7669862 L118.817592,67.7669862 C119.483446,67.7669862 119.984494,67.5980001 120.32075,67.260023 C120.657007,66.9220459 120.825133,66.450494 120.825133,65.8453537 C120.825133,65.240214 120.655342,64.7654437 120.315757,64.4210285 C119.976171,64.0766139 119.476788,63.9044088 118.817592,63.9044088 L116.600308,63.9044088 L116.600308,67.7669862 Z M134.698138,72.7207416 L129.894023,72.7207416 L129.055051,75.3472942 L125.309639,75.3472942 L130.643105,61.2875129 L133.939067,61.2875129 L139.312484,75.3472942 L135.547098,75.3472942 L134.698138,72.7207416 Z M130.732995,70.1038455 L133.859165,70.1038455 L132.291086,65.2273416 L130.732995,70.1038455 Z M152.516309,75.3472942 L149.03058,75.3472942 L143.876893,66.5985563 L143.876893,75.3472942 L140.371188,75.3472942 L140.371188,61.2875129 L143.876893,61.2875129 L149.020592,70.0362505 L149.020592,61.2875129 L152.516309,61.2875129 L152.516309,75.3472942 Z M159.677536,70.113502 L158.239298,71.6392196 L158.239298,75.3472942 L154.733593,75.3472942 L154.733593,61.2875129 L158.239298,61.2875129 L158.239298,67.4869494 L159.457806,65.7005073 L162.593964,61.2875129 L166.928654,61.2875129 L162.014674,67.5062624 L166.928654,75.3472942 L162.773744,75.3472942 L159.677536,70.113502 Z M176.976345,69.7465572 L171.32327,69.7465572 L171.32327,75.3472942 L167.817565,75.3472942 L167.817565,61.2875129 L177.545648,61.2875129 L177.545648,63.9044088 L171.32327,63.9044088 L171.32327,67.1393176 L176.976345,67.1393176 L176.976345,69.7465572 Z M190.409888,61.2875129 L190.409888,70.4901033 C190.409888,71.5330042 190.180172,72.4358725 189.720732,73.1987353 C189.261293,73.9615981 188.602107,74.5425882 187.743155,74.9417234 C186.884203,75.3408586 185.86879,75.5404231 184.696887,75.5404231 C182.925714,75.5404231 181.530771,75.0962312 180.512014,74.2078338 C179.493256,73.3194364 178.973898,72.1027368 178.953922,70.5576982 L178.953922,61.2875129 L182.479603,61.2875129 L182.479603,70.6252932 C182.519554,72.1638943 183.258642,72.9331835 184.696887,72.9331835 C185.422668,72.9331835 185.971989,72.7400564 186.344868,72.3537968 C186.717747,71.9675371 186.904183,71.3398747 186.904183,70.4707903 L186.904183,61.2875129 L190.409888,61.2875129 Z M198.000589,70.3838823 L196.102914,70.3838823 L196.102914,75.3472942 L192.597209,75.3472942 L192.597209,61.2875129 L198.320198,61.2875129 C200.044761,61.2875129 201.393095,61.6576728 202.365242,62.3980036 C203.33739,63.1383349 203.823456,64.1844388 203.823456,65.5363479 C203.823456,66.5148723 203.618709,67.3260053 203.209209,67.9697716 C202.799708,68.6135373 202.158833,69.1349801 201.286564,69.5341153 L204.322844,75.2024472 L204.322844,75.3472942 L200.567445,75.3472942 L198.000589,70.3838823 Z M196.102914,67.7669862 L198.320198,67.7669862 C198.986052,67.7669862 199.4871,67.5980001 199.823356,67.260023 C200.159613,66.9220459 200.327738,66.450494 200.327738,65.8453537 C200.327738,65.240214 200.157948,64.7654437 199.818362,64.4210285 C199.478776,64.0766139 198.979394,63.9044088 198.320198,63.9044088 L196.102914,63.9044088 L196.102914,67.7669862 Z M217.356877,63.9044088 L212.992224,63.9044088 L212.992224,75.3472942 L209.486519,75.3472942 L209.486519,63.9044088 L205.201767,63.9044088 L205.201767,61.2875129 L217.356877,61.2875129 L217.356877,63.9044088 Z"/>
    <path fill="#FF8282" d="M25.7672592,89.7933329 C20.6952953,88.2975175 16.8762845,85.8593755 14.3101123,82.4788332 C11.7439401,79.0982914 10.4608732,74.6109129 10.4608732,69.0165647 L10.4608732,59.09936 C10.4608732,51.2313724 6.97395033,47.2974376 0,47.2974376 L0,42.6305178 C6.97395033,42.6305178 10.4608732,38.7264989 10.4608732,30.918344 L10.4608732,20.6421455 C10.4910635,15.1674621 11.7741303,10.7399158 14.3101123,7.3593736 C16.8460942,3.97883143 20.665105,1.52573142 25.7672592,0 L26.9446734,3.54506411 C19.5782497,5.8785357 15.8950931,11.7270851 15.8950931,21.0908878 L15.8950931,30.6490986 C15.8950931,38.008509 13.1176307,42.7800877 7.56262264,44.9639777 C13.1176307,47.267533 15.8950931,52.0241537 15.8950931,59.2339827 L15.8950931,69.4653072 C16.0158541,78.2008675 19.7442955,83.780174 27.0805289,86.2033944 L25.7672592,89.7933329 Z M219.494813,86.2033944 C226.831047,83.780174 230.559489,78.2008675 230.68025,69.4653072 L230.68025,59.4134796 C230.68025,51.844655 233.593566,47.0431605 239.420286,45.008852 C233.593566,42.9745434 230.68025,38.2029648 230.68025,30.6939728 L230.68025,21.135762 C230.68025,11.6822105 226.997093,5.8187031 219.630669,3.54506411 L220.808084,0 C225.970618,1.52573142 229.812271,4.00126832 232.333158,7.42668497 C234.854045,10.8521016 236.114469,15.3469586 236.114469,20.9113908 L236.114469,30.918344 C236.114469,38.7264989 239.601392,42.6305178 246.575342,42.6305178 L246.575342,47.2974376 C239.601392,47.2974376 236.114469,51.2313724 236.114469,59.09936 L236.114469,69.0165647 C236.114469,74.6109129 234.831402,79.0982914 232.26523,82.4788332 C229.699058,85.8593755 225.880047,88.2975175 220.808084,89.7933329 L219.494813,86.2033944 Z"/>
    <g transform="translate(23.517 7.126)">
      <path fill="#292A2E" d="M73.9726027,34.6407258 L68.5000221,37.5785138 L72.204991,41.7247433 L66.9303006,42.4909942 L71.3028945,48.3400453 L64.7275691,48.7165536 C64.396313,49.4468488 61.716624,52.4842887 61.716624,52.543032 C60.1708136,54.7114747 59.3979082,56.5141733 59.3979082,57.951128 C59.3979082,64.8603462 56.2897971,70.0238873 49.3639879,70.0238873 L24.8297679,70.0238873 C17.9039587,70.0238873 14.8054481,64.8603462 14.8054481,57.951128 C14.8054481,56.5530521 13.803507,54.7307724 11.7996248,52.4842887 C10.8673818,51.1506168 9.91723426,49.6904761 9.46807878,48.6981083 L2.80930889,48.3168219 L7.07564441,42.6099083 L1.84138944,41.8495313 L5.52244103,37.7300679 L0,34.7655139 L7.28318047,30.8557606 C7.41070529,28.0173323 8.01229099,25.301985 9.0108466,22.7866253 L9.01084716,2.06832153 C9.01084716,0.962846661 9.9091636,0.0666822125 11.017293,0.0666822125 C11.5489118,0.0666822125 12.058801,0.277154819 12.4349953,0.651882896 L21.3266555,9.50888725 C30.0966883,5.00409829 44.1418096,5.00409829 52.7971538,9.46990677 L61.716624,0.585200682 C62.0928185,0.210472606 62.6027079,0 63.1343262,0 C64.2424562,0 65.1407721,0.896164447 65.1407721,2.00163932 L65.1407721,22.6557497 C66.1706063,25.207534 66.7910022,27.9676661 66.9207988,30.8551799 L73.9726027,34.6407258 Z"/>
      <g transform="translate(11.535 52.268)">
        <path fill="#FFF" d="M4.48154822,1.76161954 C7.05368885,2.20798971 8.55225727,2.10662281 12.0029564,2.10662281 C16.4241647,2.10662281 19.6142163,2.77893015 21.5732069,4.12356501 C23.5321976,5.46819987 25.4793027,7.26706449 25.6855637,9.67734999 C26.028827,7.26706449 27.6029043,5.51243115 29.5798673,4.15010373 C31.5568303,2.7877763 34.755868,2.10662281 39.1770763,2.10662281 C42.7715546,2.10662281 42.8699064,2.25973818 46.9411106,1.76161954 C48.1533455,1.61330057 49.3950167,0.961737084 50.381598,0.250267224 C49.0124645,2.36213916 48.6615448,3.2906302 48.0521542,5.56301998 C47.6876526,5.76086236 47.2791624,5.92050614 46.9141521,6.03435237 C45.0989406,6.60051444 42.5199411,6.88359119 39.1770763,6.88359119 C35.7263771,6.88359119 33.0934613,6.99859116 31.2782498,7.22859448 C29.4630383,7.4585978 28.1690455,7.85667452 27.3962326,8.42283653 C26.6234198,8.98899861 26.3200767,9.82053666 26.2122424,10.9174756 L26.2122424,11.1828627 L25.1674612,11.1828627 L25.1674612,10.9174756 C25.0955716,9.82053666 24.6105298,8.98899861 23.837717,8.42283653 C23.0649041,7.85667452 21.7709114,7.4585978 19.9556998,7.22859448 C18.1404883,6.99859116 15.4896003,6.88359119 12.0029564,6.88359119 C8.80387077,6.88359119 6.31473189,6.60051444 4.53546513,6.03435237 C4.0665154,5.88513273 3.6390108,5.73618963 3.28141723,5.59889757 C3.01063414,4.2116257 2.42181059,3.02724365 0.230680853,0.17910902 C1.26283761,0.983068989 2.76678782,1.46403943 4.48154822,1.76161954 Z"/>
        <path fill="#FF8282" d="M24.9751567,7.55404878 L24.9751567,5.85199629 C24.9751567,5.52051237 25.2445967,5.25179154 25.5769677,5.25179154 C25.9093388,5.25179154 26.1787787,5.52051237 26.1787787,5.85199629 L26.1787787,7.55404878 L27.3855324,6.35051595 C27.6205543,6.11612139 28.0016,6.11612139 28.2366218,6.35051595 C28.4716436,6.58491047 28.4716436,6.96493911 28.2366218,7.19933363 L27.029868,8.40286646 L28.7364755,8.40286646 C29.0688465,8.40286646 29.3382865,8.67158729 29.3382865,9.00307122 C29.3382865,9.33455515 29.0688465,9.60327598 28.7364755,9.60327598 L27.029868,9.60327598 L28.2366218,10.8068088 C28.4716436,11.0412033 28.4716436,11.421232 28.2366218,11.6556265 C28.0016,11.8900211 27.6205543,11.8900211 27.3855324,11.6556265 L26.1787787,10.4520937 L26.1787787,12.1541462 C26.1787787,12.4856301 25.9093388,12.7543509 25.5769677,12.7543509 C25.2445967,12.7543509 24.9751567,12.4856301 24.9751567,12.1541462 L24.9751567,10.4520937 L23.768403,11.6556265 C23.5333812,11.8900211 23.1523355,11.8900211 22.9173137,11.6556265 C22.6822919,11.421232 22.6822919,11.0412033 22.9173137,10.8068088 L24.1240674,9.60327598 L22.41746,9.60327598 C22.0850889,9.60327598 21.8156489,9.33455515 21.8156489,9.00307122 C21.8156489,8.67158729 22.0850889,8.40286646 22.41746,8.40286646 L24.1240674,8.40286646 L22.9173137,7.19933363 C22.6822919,6.96493911 22.6822919,6.58491047 22.9173137,6.35051595 C23.1523355,6.11612139 23.5333812,6.11612139 23.768403,6.35051595 L24.9751567,7.55404878 Z"/>
      </g>
      <g transform="translate(17.553 22.258)">
        <ellipse cx="8.776" cy="8.753" fill="#FFF" rx="8.776" ry="8.753"/>
        <ellipse cx="30.091" cy="8.753" fill="#FFF" rx="8.776" ry="8.753"/>
        <ellipse cx="11.159" cy="9.378" fill="#292A2E" rx="4.388" ry="4.377"/>
        <ellipse cx="27.708" cy="9.378" fill="#292A2E" rx="4.388" ry="4.377"/>
      </g>
      <path fill="#FF8282" d="M35.1005758,40.5138205 L39.1137076,40.5138205 C39.8083607,40.5138205 40.3714883,41.0812587 40.3714883,41.7812292 C40.3714883,42.1615795 40.2019688,42.5218222 39.9097158,42.7625334 L38.2661555,44.1162355 C37.630897,44.6394598 36.720546,44.6489821 36.0746454,44.1391588 L34.3305842,42.7625334 C33.7877005,42.3340236 33.6923433,41.5431846 34.1175979,40.9961453 C34.3542779,40.6916847 34.7167651,40.5138205 35.1005758,40.5138205 Z"/>
    </g>
  </g>
</svg>
