<svg xmlns="http://www.w3.org/2000/svg" width="141" height="40" viewBox="0 0 141 40">
  <g transform="translate(.583)">
    <path d="M139.724138,39.8965517 L0.689655172,39.8965517 C0.310344828,39.8965517 0,39.5862069 0,39.2068966 L0,0.689655172 C0,0.310344828 0.310344828,0 0.689655172,0 L139.724138,0 C140.103448,0 140.413793,0.310344828 140.413793,0.689655172 L140.413793,39.2068966 C140.413793,39.5862069 140.103448,39.8965517 139.724138,39.8965517 Z M2.72413793,37.1724138 L137.689655,37.1724138 L137.689655,2.72413793 L2.72413793,2.72413793 L2.72413793,37.1724138 Z"/>
    <path d="M0,0.655172414 C0,0.448275862 0.137931034,0.310344828 0.344827586,0.310344828 L8.79310345,0.310344828 C12.8275862,0.310344828 16.6206897,1.27586207 16.6206897,5.75862069 C16.6206897,8.86206897 14.6551724,10.3448276 12.4482759,10.7931034 L12.4482759,10.862069 C15.1034483,11.3448276 17.2413793,12.7241379 17.2413793,16.2413793 C17.2413793,20.6551724 13.3448276,22.3103448 9.24137931,22.3103448 L0.344827586,22.3103448 C0.137931034,22.3103448 0,22.1724138 0,21.9655172 L0,0.655172414 Z M8.31034483,9.37931034 C10.8275862,9.37931034 12,8.4137931 12,6.72413793 C12,5 10.9655172,4.06896552 8.37931034,4.06896552 L4.75862069,4.06896552 L4.75862069,9.37931034 L8.31034483,9.37931034 Z M8.65517241,18.6206897 C11.3103448,18.6206897 12.5172414,17.5517241 12.5172414,15.6896552 C12.5172414,13.7586207 11.137931,12.7931034 8.44827586,12.7931034 L4.75862069,12.7931034 L4.75862069,18.6206897 L8.65517241,18.6206897 Z" transform="translate(8.966 8.62)"/>
    <path d="M0,0.655172414 C0,0.448275862 0.137931034,0.310344828 0.344827586,0.310344828 L8.24137931,0.310344828 C13.6551724,0.310344828 16.8965517,2.24137931 16.8965517,7.10344828 C16.8965517,10.5862069 15.2758621,12.4827586 12.3103448,13.3793103 L16.9310345,21.7586207 C17.0689655,22 16.8965517,22.2758621 16.6206897,22.2758621 L12.3103448,22.2758621 C12.1724138,22.2758621 12.0689655,22.2068966 12,22.0689655 L7.62068966,13.137931 C7.55172414,13.0344828 7.44827586,12.9310345 7.31034483,12.9310345 L4.72413793,12.9310345 L4.72413793,21.8965517 C4.72413793,22.1034483 4.5862069,22.2413793 4.37931034,22.2413793 L0.344827586,22.2413793 C0.137931034,22.2413793 0,22.1034483 0,21.8965517 L0,0.655172414 Z M8.03448276,9.24137931 C10.1034483,9.24137931 12.1724138,8.79310345 12.1724138,6.93103448 C12.1724138,4.89655172 10.8275862,4.27586207 8.03448276,4.27586207 L4.72413793,4.27586207 L4.72413793,9.24137931 L8.03448276,9.24137931 Z" transform="translate(31.38 8.62)"/>
    <path d="M0.137931034,0.655172414 C0.137931034,0.448275862 0.275862069,0.310344828 0.482758621,0.310344828 L8.37931034,0.310344828 C13.7931034,0.310344828 17.0344828,2.24137931 17.0344828,7.10344828 C17.0344828,10.5862069 15.4137931,12.4827586 12.4482759,13.3793103 L17.0689655,21.7586207 C17.2068966,22 17.0344828,22.2758621 16.7586207,22.2758621 L12.4482759,22.2758621 C12.3103448,22.2758621 12.2068966,22.2068966 12.137931,22.0689655 L7.75862069,13.137931 C7.68965517,13.0344828 7.5862069,12.9310345 7.44827586,12.9310345 L4.86206897,12.9310345 L4.86206897,21.8965517 C4.86206897,22.1034483 4.72413793,22.2413793 4.51724138,22.2413793 L0.448275862,22.2413793 C0.24137931,22.2413793 0.103448276,22.1034483 0.103448276,21.8965517 L0.103448276,0.655172414 L0.137931034,0.655172414 Z M8.20689655,9.24137931 C10.2758621,9.24137931 12.3448276,8.79310345 12.3448276,6.93103448 C12.3448276,4.89655172 11,4.27586207 8.20689655,4.27586207 L4.89655172,4.27586207 L4.89655172,9.24137931 L8.20689655,9.24137931 Z" transform="translate(114.483 8.62)"/>
    <path d="M6.55172414,4.34482759 L0.344827586,4.34482759 C0.137931034,4.34482759 0,4.20689655 0,4 L0,0.655172414 C0,0.448275862 0.137931034,0.310344828 0.344827586,0.310344828 L17.5862069,0.310344828 C17.7931034,0.310344828 17.9310345,0.448275862 17.9310345,0.655172414 L17.9310345,4 C17.9310345,4.20689655 17.7931034,4.34482759 17.5862069,4.34482759 L11.3793103,4.34482759 L11.3793103,21.9310345 C11.3793103,22.137931 11.2413793,22.2758621 11.0344828,22.2758621 L6.89655172,22.2758621 C6.68965517,22.2758621 6.55172414,22.137931 6.55172414,21.9310345 L6.55172414,4.34482759 Z" transform="translate(72.414 8.62)"/>
    <path d="M0.344827586,0.310344828 L15.1724138,0.310344828 C15.3793103,0.310344828 15.5172414,0.448275862 15.5172414,0.655172414 L15.5172414,4 C15.5172414,4.20689655 15.3793103,4.34482759 15.1724138,4.34482759 L4.86206897,4.34482759 L4.86206897,9.06896552 L13.4482759,9.06896552 C13.6551724,9.06896552 13.7931034,9.20689655 13.7931034,9.4137931 L13.7931034,12.5517241 C13.7931034,12.7586207 13.6551724,12.8965517 13.4482759,12.8965517 L4.86206897,12.8965517 L4.86206897,18.3448276 L15.1724138,18.3448276 C15.3793103,18.3448276 15.5172414,18.4827586 15.5172414,18.6896552 L15.5172414,21.9310345 C15.5172414,22.137931 15.3793103,22.2758621 15.1724138,22.2758621 L0.344827586,22.2758621 C0.137931034,22.2758621 0,22.137931 0,21.9310345 L0,0.655172414 C0,0.482758621 0.172413793,0.310344828 0.344827586,0.310344828 Z" transform="translate(94.483 8.62)"/>
    <g transform="translate(50.345 8.62)">
      <path d="M7.55172414,4.75862069 L5.03448276,0.482758621 C4.96551724,0.379310345 4.86206897,0.310344828 4.72413793,0.310344828 L0.551724138,0.310344828 C0.275862069,0.310344828 0.103448276,0.586206897 0.24137931,0.827586207 L5.4137931,9.24137931 L7.55172414,4.75862069 Z"/>
      <path d="M7.75862069,0.482758621 L0.275862069,12.9655172 L0.275862069,21.9310345 C0.275862069,22.137931 0.413793103,22.2758621 0.620689655,22.2758621 L4.72413793,22.2758621 C4.93103448,22.2758621 5.06896552,22.137931 5.06896552,21.9310345 L5.06896552,12.9655172 L12.3448276,0.827586207 C12.4827586,0.586206897 12.3103448,0.310344828 12.0344828,0.310344828 L8,0.310344828 C7.93103448,0.310344828 7.82758621,0.379310345 7.75862069,0.482758621 Z" transform="translate(7.241)"/>
    </g>
  </g>
</svg>
