<svg xmlns="http://www.w3.org/2000/svg" width="128" height="40" viewBox="0 0 128 40">
  <g fill="none" fill-rule="evenodd">
    <path fill="#841439" fill-rule="nonzero" d="M0.0038961039,24.0202597 C0.0038961039,20.3602597 2.97064935,17.3937662 6.63038961,17.3937662 C10.2901299,17.3937662 13.2568831,20.3602597 13.2568831,24.0202597 C13.2568831,27.68 10.2903896,30.6467532 6.63038961,30.6467532 C2.97064935,30.6467532 0.0038961039,27.68 0.0038961039,24.0202597 Z"/>
    <path fill="#6F6F6F" fill-rule="nonzero" d="M17.527013 0L17.527013 30.4524675 23.0841558 30.4524675 23.0841558 4.63350649C23.0841558 4.63350649 31.6735065 4.63350649 35.8127273 4.63350649L35.8127273 30.4524675 41.3872727 30.4524675 41.3872727 4.63350649C45.0574026 4.63350649 48.181039 4.63350649 49.852987 4.63350649 52.7119481 4.63350649 54.7303896 6.34883117 54.7303896 10.0698701L54.7303896 30.4524675 60.2922078 30.4524675C60.2922078 22.4594805 60.2922078 15.4880519 60.2922078 8.52987013 60.2924675 4.3825974 58.1532468 0 52.6527273 0L17.527013 0zM71.4238961-1.67023682e-14C65.4215584-1.67023682e-14 63.6023377 3.98675325 63.6023377 8.45090909 63.6023377 13.2197403 65.5838961 17.2368831 71.0384416 17.2368831 75.9571429 17.2368831 80.5657143 17.2368831 84.2667532 17.2368831 88.3197403 17.2368831 88.3197403 20.3522078 88.3197403 21.7698701 88.3197403 23.0909091 88.3197403 25.8096104 84.3685714 25.8096104 81.2111688 25.8096104 64.1220779 25.8096104 64.1220779 25.8096104 64.1220779 25.8096104 64.1220779 29.1558442 64.1220779 30.4524675L86.6948052 30.4524675C92.3244156 30.4524675 93.9366234 27.1454545 93.9366234 21.8109091 93.9366234 15.4553247 91.8612987 12.6067532 87.0503896 12.6067532 81.3851948 12.6067532 77.4106494 12.6067532 72.7675325 12.6067532 69.1636364 12.6067532 69.1636364 10.1716883 69.1636364 8.54831169 69.1636364 7.28207792 69.521039 4.63350649 73.3846753 4.63350649 77.4428571 4.63350649 92.8976623 4.63350649 92.8976623 4.63350649 92.8976623 2.76909091 92.8976623 1.7625974 92.8976623-2.13162821e-14L71.4238961-2.13162821e-14z"/>
    <path fill="#6F6F6F" d="M108.380519,0 C103.423896,0 101.579481,0.791688312 100.22026,1.87558442 C98.7371429,3.05844156 97.3787013,4.56 97.3501299,9.66597403 L97.3501299,15.1051948 L97.3501299,20.6597403 C97.3501299,26.0693506 98.8519481,27.5825974 100.387792,28.8732468 C101.422078,29.6114286 103.134286,30.4524675 108.392987,30.4524675 L121.728831,30.4524675 C121.728831,30.4524675 121.735844,31.3828571 121.731688,31.6293506 C121.728831,33.9275325 121.288312,34.9303896 118.654805,34.9303896 L101.271169,34.9303896 L101.271169,39.8051948 L120.43039,39.8051948 C125.596364,39.8051948 127.268831,37.505974 127.268831,33.1636364 L127.268831,0 L108.380519,0 Z M121.731688,25.8145455 L110.070649,25.8145455 C106.624156,25.8348052 103.129091,26.0742857 103.038701,21.6103896 C103.034805,21.4257143 103.02026,19.7820779 103.038701,15.0080519 C103.054545,10.9592208 103.017143,9.99168831 103.038701,9.57246753 C103.231169,5.83298701 104.611429,4.50207792 110.316883,4.63844156 C110.651429,4.64649351 121.731429,4.63844156 121.731429,4.63844156 L121.731429,25.8145455 L121.731688,25.8145455 Z"/>
  </g>
</svg>
