<?xml version="1.0" encoding="UTF-8" standalone="no"?><!DOCTYPE svg PUBLIC "-//W3C//DTD SVG 1.1//EN" "http://www.w3.org/Graphics/SVG/1.1/DTD/svg11.dtd"><svg width="100%" height="100%" viewBox="0 0 85 80" version="1.1" xmlns="http://www.w3.org/2000/svg" xmlns:xlink="http://www.w3.org/1999/xlink" xml:space="preserve" xmlns:serif="http://www.serif.com/" style="fill-rule:evenodd;clip-rule:evenodd;stroke-linejoin:round;stroke-miterlimit:1.41421;"><g><g><path id="vue.js-frankfurt-diecut-a" d="M84.103,39.576l-8.018,-4.325c-0.148,-3.299 -0.853,-6.452 -2.024,-9.368l0,-23.596c0,-1.263 -1.021,-2.287 -2.281,-2.287c-0.604,0 -1.184,0.24 -1.612,0.669l-10.141,10.15c-9.84,-5.102 -25.809,-5.102 -35.78,0.045l-10.109,-10.119c-0.428,-0.428 -1.008,-0.669 -1.612,-0.669c-1.26,0 -2.281,1.024 -2.281,2.287l0,23.67c-1.135,2.874 -1.819,5.976 -1.964,9.219l-8.281,4.466l6.279,3.387l-4.185,4.707l5.951,0.868l-4.851,6.52l7.571,0.436c0.51,1.134 1.591,2.802 2.65,4.326c2.279,2.566 3.418,4.648 3.418,6.245c0,7.894 3.523,13.793 11.397,13.793l27.894,0c7.874,0 11.408,-5.899 11.408,-13.793c0,-1.641 0.879,-3.701 2.636,-6.178c0,-0.067 3.047,-3.538 3.423,-4.372l7.476,-0.43l-4.971,-6.682l5.997,-0.876l-4.212,-4.737l6.222,-3.356Z" style="fill:#2e2b2c;fill-rule:nonzero;"/><clipPath id="_clip1"><path id="vue.js-frankfurt-diecut-a1" serif:id="vue.js-frankfurt-diecut-a" d="M84.103,39.576l-8.018,-4.325c-0.148,-3.299 -0.853,-6.452 -2.024,-9.368l0,-23.596c0,-1.263 -1.021,-2.287 -2.281,-2.287c-0.604,0 -1.184,0.24 -1.612,0.669l-10.141,10.15c-9.84,-5.102 -25.809,-5.102 -35.78,0.045l-10.109,-10.119c-0.428,-0.428 -1.008,-0.669 -1.612,-0.669c-1.26,0 -2.281,1.024 -2.281,2.287l0,23.67c-1.135,2.874 -1.819,5.976 -1.964,9.219l-8.281,4.466l6.279,3.387l-4.185,4.707l5.951,0.868l-4.851,6.52l7.571,0.436c0.51,1.134 1.591,2.802 2.65,4.326c2.279,2.566 3.418,4.648 3.418,6.245c0,7.894 3.523,13.793 11.397,13.793l27.894,0c7.874,0 11.408,-5.899 11.408,-13.793c0,-1.641 0.879,-3.701 2.636,-6.178c0,-0.067 3.047,-3.538 3.423,-4.372l7.476,-0.43l-4.971,-6.682l5.997,-0.876l-4.212,-4.737l6.222,-3.356Z" clip-rule="nonzero"/></clipPath><g clip-path="url(#_clip1)"><g><path d="M46.619,-3l15.381,0l-20,34.931l-20,-34.931l15.381,0l4.619,8.067l4.619,-8.067Z" style="fill:#3fba83;fill-rule:nonzero;"/><path d="M46.619,-3l7.381,0l-12,20.958l-12,-20.958l7.381,0l4.619,8.067l4.619,-8.067Z" style="fill:#344a5e;fill-rule:nonzero;"/></g><g><path d="M50.083,55.5l26.917,0l-35,61.877l-35,-61.877l26.917,0l8.083,14.29l8.083,-14.29Z" style="fill:#3fba83;fill-rule:nonzero;"/><path d="M50.083,55.5l12.917,0l-21,37.125l-21,-37.125l12.917,0l8.083,14.29l8.083,-14.29Z" style="fill:#344a5e;fill-rule:nonzero;"/></g></g></g><path d="M17.916,61.909c2.975,0.538 4.708,0.416 8.699,0.416c5.113,0 8.802,0.811 11.068,2.433c2.265,1.622 4.517,3.792 4.756,6.699c0.397,-2.907 2.217,-5.024 4.504,-6.667c2.286,-1.643 5.986,-2.465 11.099,-2.465c4.157,0 4.271,0.185 8.979,-0.416c1.402,-0.179 2.838,-0.965 3.979,-1.823c-1.583,2.547 -1.989,3.667 -2.694,6.408c-0.422,0.239 -0.894,0.431 -1.316,0.569c-2.099,0.683 -5.082,1.024 -8.948,1.024c-3.991,0 -7.036,0.139 -9.135,0.416c-2.1,0.278 -3.596,0.758 -4.49,1.441c-0.637,0.486 -0.998,1.135 -1.198,1.947c-0.081,0.327 -1.456,0.39 -1.541,0.087c-0.239,-0.852 -0.717,-1.53 -1.376,-2.034c-0.894,-0.683 -2.391,-1.163 -4.49,-1.441c-2.099,-0.277 -5.165,-0.416 -9.197,-0.416c-3.7,0 -6.579,-0.341 -8.636,-1.024c-0.543,-0.18 -1.037,-0.36 -1.451,-0.526c-0.313,-1.673 -0.994,-3.102 -3.528,-6.537c1.194,0.97 2.933,1.55 4.916,1.909Z" style="fill:#fff;"/><path d="M41.6,68.777l0,-2.053c0,-0.4 0.308,-0.724 0.686,-0.724c0.379,0 0.686,0.324 0.686,0.724l0,2.053l1.375,-1.452c0.268,-0.282 0.702,-0.282 0.97,0c0.268,0.283 0.268,0.741 0,1.024l-1.375,1.452l1.945,0c0.378,0 0.686,0.324 0.686,0.724c0,0.4 -0.308,0.724 -0.686,0.724l-1.945,0l1.375,1.452c0.268,0.282 0.268,0.741 0,1.023c-0.268,0.283 -0.702,0.283 -0.97,0l-1.375,-1.451l0,2.053c0,0.4 -0.307,0.724 -0.686,0.724c-0.378,0 -0.686,-0.324 -0.686,-0.724l0,-2.053l-1.375,1.451c-0.268,0.283 -0.702,0.283 -0.97,0c-0.267,-0.282 -0.267,-0.741 0,-1.023l1.376,-1.452l-1.945,0c-0.379,0 -0.686,-0.324 -0.686,-0.724c0,-0.4 0.307,-0.724 0.686,-0.724l1.945,0l-1.376,-1.452c-0.267,-0.283 -0.267,-0.741 0,-1.024c0.268,-0.282 0.702,-0.282 0.97,0l1.375,1.452Z" style="fill:#41b883;"/><ellipse cx="30.471" cy="34.872" rx="9.959" ry="10.256" style="fill:#fff;"/><ellipse cx="54.657" cy="34.872" rx="9.959" ry="10.256" style="fill:#fff;"/><ellipse cx="33.175" cy="35.604" rx="4.979" ry="5.128" style="fill:#2e2b2c;"/><ellipse cx="51.954" cy="35.604" rx="4.979" ry="5.128" style="fill:#2e2b2c;"/><path d="M40.349,46.154l4.42,0c0.765,0 1.385,0.582 1.385,1.299c0,0.39 -0.187,0.76 -0.509,1.006l-1.81,1.388c-0.699,0.537 -1.702,0.547 -2.413,0.024l-1.92,-1.412c-0.598,-0.439 -0.703,-1.25 -0.235,-1.811c0.261,-0.312 0.66,-0.494 1.082,-0.494Z" style="fill:#ff8282;"/></g></svg>